<svg xmlns="http://www.w3.org/2000/svg" style="margin:auto;background:transparent;display:block;" width="563" height="133" preserveAspectRatio="xMidYMid">
<style type="text/css">
  text {
    text-anchor: middle; font-size: 111px; opacity: 0;
  }
</style>
<g style="transform-origin:281.5px 66.5px;transform:scale(1)">
<g transform="translate(281.5,66.5)">
  <g transform="translate(0,4)"><g class="path" style="transform: rotateY(0deg); transform-origin: -210.215px -8.56737px; animation: 2.43902s linear 0s infinite normal forwards running flip-h-d37eefa5-6676-4f32-ba54-7d556bd73ad6;"><path d="M42.22 0L24.39-58.21L18.32 0L5.04 0L18.32-78.05L37.99-78.05L56.26-18.48L74.74-78.05L94.42-78.05L105.47 0L83.58 0L77.13-56.69L61.90 0L42.22 0" fill="#85a2b6" stroke="none" stroke-width="none" transform="translate(-265.469970703125,30.457633565266924)" style="fill: rgb(190, 89, 96);"></path></g><g class="path" style="transform: rotateY(0deg); transform-origin: -117.78px -8.56737px; animation: 2.43902s linear -0.256098s infinite normal forwards running flip-h-d37eefa5-6676-4f32-ba54-7d556bd73ad6;"><path d="M175.71-9.97L175.71 0L119.67 0L119.67-78.05L175.71-78.05L175.71-68.07L141.19-68.07L141.19-43.96L167.85-43.96L167.85-34.04L141.19-34.04L141.19-9.97L175.71-9.97" fill="#85a2b6" stroke="none" stroke-width="none" transform="translate(-265.469970703125,30.457633565266924)" style="fill: rgb(214, 146, 147);"></path></g><g class="path" style="transform: rotateY(0deg); transform-origin: -30.005px -8.56737px; animation: 2.43902s linear -0.512195s infinite normal forwards running flip-h-d37eefa5-6676-4f32-ba54-7d556bd73ad6;"><path d="M222.43 0L204.60-58.21L198.53 0L185.25 0L198.53-78.05L218.21-78.05L236.47-18.48L254.95-78.05L274.63-78.05L285.68 0L263.79 0L257.34-56.69L242.11 0L222.43 0" fill="#85a2b6" stroke="none" stroke-width="none" transform="translate(-265.469970703125,30.457633565266924)" style="fill: rgb(253, 253, 253);"></path></g><g class="path" style="transform: rotateY(0deg); transform-origin: 71.975px -8.70237px; animation: 2.43902s linear -0.768293s infinite normal forwards running flip-h-d37eefa5-6676-4f32-ba54-7d556bd73ad6;"><path d="M380.32-39.13L380.32-39.13L380.32-39.13Q380.32-29.70 377.06-22.14L377.06-22.14L377.06-22.14Q373.81-14.58 368.07-9.32L368.07-9.32L368.07-9.32Q362.32-4.06 354.46-1.25L354.46-1.25L354.46-1.25Q346.60 1.57 337.44 1.57L337.44 1.57L337.44 1.57Q328.28 1.57 320.43-1.25L320.43-1.25L320.43-1.25Q312.57-4.06 306.82-9.32L306.82-9.32L306.82-9.32Q301.08-14.58 297.82-22.14L297.82-22.14L297.82-22.14Q294.57-29.70 294.57-39.13L294.57-39.13L294.57-39.13Q294.57-48.73 297.80-56.29L297.80-56.29L297.80-56.29Q301.02-63.85 306.74-69.08L306.74-69.08L306.74-69.08Q312.46-74.31 320.32-77.10L320.32-77.10L320.32-77.10Q328.18-79.89 337.44-79.89L337.44-79.89L337.44-79.89Q346.71-79.89 354.57-77.10L354.57-77.10L354.57-77.10Q362.43-74.31 368.15-69.08L368.15-69.08L368.15-69.08Q373.87-63.85 377.09-56.29L377.09-56.29L377.09-56.29Q380.32-48.73 380.32-39.13zM358.42-39.13L358.42-39.13L358.42-39.13Q358.42-42.71 358.09-46.45L358.09-46.45L358.09-46.45Q357.77-50.19 356.90-53.71L356.90-53.71L356.90-53.71Q356.03-57.23 354.54-60.32L354.54-60.32L354.54-60.32Q353.05-63.41 350.72-65.72L350.72-65.72L350.72-65.72Q348.39-68.02 345.11-69.35L345.11-69.35L345.11-69.35Q341.83-70.68 337.44-70.68L337.44-70.68L337.44-70.68Q333-70.68 329.69-69.35L329.69-69.35L329.69-69.35Q326.39-68.02 324.06-65.74L324.06-65.74L324.06-65.74Q321.73-63.47 320.26-60.38L320.26-60.38L320.26-60.38Q318.80-57.29 317.96-53.79L317.96-53.79L317.96-53.79Q317.12-50.30 316.79-46.53L316.79-46.53L316.79-46.53Q316.47-42.76 316.47-39.13L316.47-39.13L316.47-39.13Q316.47-35.55 316.79-31.81L316.79-31.81L316.79-31.81Q317.12-28.08 317.99-24.58L317.99-24.58L317.99-24.58Q318.85-21.08 320.34-17.99L320.34-17.99L320.34-17.99Q321.83-14.90 324.17-12.60L324.17-12.60L324.17-12.60Q326.50-10.30 329.78-8.94L329.78-8.94L329.78-8.94Q333.05-7.59 337.44-7.59L337.44-7.59L337.44-7.59Q341.73-7.59 344.92-8.97L344.92-8.97L344.92-8.97Q348.12-10.35 350.45-12.71L350.45-12.71L350.45-12.71Q352.78-15.07 354.33-18.18L354.33-18.18L354.33-18.18Q355.87-21.30 356.77-24.80L356.77-24.80L356.77-24.80Q357.66-28.29 358.04-31.98L358.04-31.98L358.04-31.98Q358.42-35.66 358.42-39.13" fill="#85a2b6" stroke="none" stroke-width="none" transform="translate(-265.469970703125,30.457633565266924)" style="fill: rgb(220, 228, 235);"></path></g><g class="path" style="transform: rotateY(0deg); transform-origin: 163.215px -8.56737px; animation: 2.43902s linear -1.02439s infinite normal forwards running flip-h-d37eefa5-6676-4f32-ba54-7d556bd73ad6;"><path d="M415.22-29.16L415.22 0L393.70 0L393.70-78.05L432.08-78.05L432.08-78.05Q437.50-78.05 442.54-76.77L442.54-76.77L442.54-76.77Q447.58-75.50 451.45-72.76L451.45-72.76L451.45-72.76Q455.33-70.03 457.63-65.69L457.63-65.69L457.63-65.69Q459.93-61.35 459.93-55.17L459.93-55.17L459.93-55.17Q459.93-50.35 457.90-46.10L457.90-46.10L457.90-46.10Q455.87-41.84 452.48-38.51L452.48-38.51L452.48-38.51Q449.09-35.18 444.70-32.98L444.70-32.98L444.70-32.98Q440.31-30.79 435.60-30.08L435.60-30.08L435.60-30.08Q437.71-26.50 440.02-23.31L440.02-23.31L440.02-23.31Q442.32-20.11 444.68-17.32L444.68-17.32L444.68-17.32Q447.04-14.53 449.37-12.17L449.37-12.17L449.37-12.17Q451.70-9.81 453.81-7.86L453.81-7.86L453.81-7.86Q458.80-3.31 463.67 0L463.67 0L436.85 0L436.85 0Q433.59-3.09 430.67-7.43L430.67-7.43L430.67-7.43Q428.17-11.11 425.65-16.56L425.65-16.56L425.65-16.56Q423.13-22.00 421.78-29.16L421.78-29.16L415.22-29.16zM438.09-55.17L438.09-55.17L438.09-55.17Q438.09-63.03 434.27-66.72L434.27-66.72L434.27-66.72Q430.45-70.40 422.81-70.40L422.81-70.40L415.22-70.40L415.22-36.53L422.81-36.53L422.81-36.53Q426.87-36.53 429.77-38.07L429.77-38.07L429.77-38.07Q432.67-39.62 434.52-42.19L434.52-42.19L434.52-42.19Q436.36-44.77 437.23-48.13L437.23-48.13L437.23-48.13Q438.09-51.49 438.09-55.17" fill="#85a2b6" stroke="none" stroke-width="none" transform="translate(-265.469970703125,30.457633565266924)" style="fill: rgb(187, 206, 221);"></path></g><g class="path" style="transform: rotateY(0deg); transform-origin: 234.355px -8.56737px; animation: 2.43902s linear -1.28049s infinite normal forwards running flip-h-d37eefa5-6676-4f32-ba54-7d556bd73ad6;"><path d="M520.80-78.05L535.98-78.05L510.72-32.79L510.72 0L489.20 0L489.20-31.60L463.67-78.05L485.63-78.05L502.59-38.81L520.80-78.05" fill="#85a2b6" stroke="none" stroke-width="none" transform="translate(-265.469970703125,30.457633565266924)" style="fill: rgb(133, 162, 182);"></path></g></g>
</g>
</g>
</svg>